<svg width="117" height="17" viewBox="0 0 117 17" fill="none" xmlns="http://www.w3.org/2000/svg">
<path d="M14.1744 16.9982C14.0481 16.9987 13.9249 16.9588 13.8223 16.8844L8.99906 13.3467L4.17585 16.8844C4.0728 16.96 3.94866 17.0005 3.82136 17C3.69407 16.9995 3.57022 16.9581 3.46772 16.8817C3.36522 16.8054 3.28938 16.698 3.25117 16.5752C3.21296 16.4523 3.21436 16.3204 3.25515 16.1984L5.13629 10.5615L0.260942 7.17903C0.155339 7.10584 0.0756353 7.00041 0.0334775 6.87814C-0.00868039 6.75586 -0.0110835 6.62315 0.0266195 6.4994C0.0643224 6.37564 0.140155 6.26733 0.243038 6.19028C0.345922 6.11323 0.470463 6.07149 0.598466 6.07115H6.61314L8.42827 0.419828C8.46737 0.297818 8.54367 0.191473 8.64622 0.116049C8.74876 0.040626 8.87228 0 8.99906 0C9.12584 0 9.24937 0.040626 9.35191 0.116049C9.45446 0.191473 9.53075 0.297818 9.56985 0.419828L11.385 6.07305H17.3997C17.5278 6.07298 17.6526 6.11444 17.7558 6.19134C17.859 6.26824 17.9352 6.37654 17.9731 6.50039C18.011 6.62424 18.0088 6.75713 17.9667 6.87959C17.9246 7.00205 17.8448 7.10765 17.7391 7.18092L12.8618 10.5615L14.7418 16.1969C14.7723 16.2881 14.7809 16.3854 14.7668 16.4806C14.7528 16.5759 14.7166 16.6664 14.6611 16.7446C14.6057 16.8229 14.5327 16.8868 14.448 16.9308C14.3634 16.9749 14.2696 16.998 14.1744 16.9982Z" fill="#E1B168"/>
<path d="M39.1744 16.9982C39.0481 16.9987 38.9249 16.9588 38.8223 16.8844L33.9991 13.3467L29.1758 16.8844C29.0728 16.96 28.9487 17.0005 28.8214 17C28.6941 16.9995 28.5702 16.9581 28.4677 16.8817C28.3652 16.8054 28.2894 16.698 28.2512 16.5752C28.213 16.4523 28.2144 16.3204 28.2552 16.1984L30.1363 10.5615L25.2609 7.17903C25.1553 7.10584 25.0756 7.00041 25.0335 6.87814C24.9913 6.75586 24.9889 6.62315 25.0266 6.4994C25.0643 6.37564 25.1402 6.26733 25.243 6.19028C25.3459 6.11323 25.4705 6.07149 25.5985 6.07115H31.6131L33.4283 0.419828C33.4674 0.297818 33.5437 0.191473 33.6462 0.116049C33.7488 0.040626 33.8723 0 33.9991 0C34.1258 0 34.2494 0.040626 34.3519 0.116049C34.4545 0.191473 34.5308 0.297818 34.5699 0.419828L36.385 6.07305H42.3997C42.5278 6.07298 42.6526 6.11444 42.7558 6.19134C42.859 6.26824 42.9352 6.37654 42.9731 6.50039C43.011 6.62424 43.0088 6.75713 42.9667 6.87959C42.9246 7.00205 42.8448 7.10765 42.7391 7.18092L37.8618 10.5615L39.7418 16.1969C39.7723 16.2881 39.7809 16.3854 39.7668 16.4806C39.7528 16.5759 39.7166 16.6664 39.6611 16.7446C39.6057 16.8229 39.5327 16.8868 39.448 16.9308C39.3634 16.9749 39.2696 16.998 39.1744 16.9982Z" fill="#E1B168"/>
<path d="M63.1744 16.9982C63.0481 16.9987 62.9249 16.9588 62.8223 16.8844L57.9991 13.3467L53.1758 16.8844C53.0728 16.96 52.9487 17.0005 52.8214 17C52.6941 16.9995 52.5702 16.9581 52.4677 16.8817C52.3652 16.8054 52.2894 16.698 52.2512 16.5752C52.213 16.4523 52.2144 16.3204 52.2552 16.1984L54.1363 10.5615L49.2609 7.17903C49.1553 7.10584 49.0756 7.00041 49.0335 6.87814C48.9913 6.75586 48.9889 6.62315 49.0266 6.4994C49.0643 6.37564 49.1402 6.26733 49.243 6.19028C49.3459 6.11323 49.4705 6.07149 49.5985 6.07115H55.6131L57.4283 0.419828C57.4674 0.297818 57.5437 0.191473 57.6462 0.116049C57.7488 0.040626 57.8723 0 57.9991 0C58.1258 0 58.2494 0.040626 58.3519 0.116049C58.4545 0.191473 58.5308 0.297818 58.5699 0.419828L60.385 6.07305H66.3997C66.5278 6.07298 66.6526 6.11444 66.7558 6.19134C66.859 6.26824 66.9352 6.37654 66.9731 6.50039C67.011 6.62424 67.0088 6.75713 66.9667 6.87959C66.9246 7.00205 66.8448 7.10765 66.7391 7.18092L61.8618 10.5615L63.7418 16.1969C63.7723 16.2881 63.7809 16.3854 63.7668 16.4806C63.7528 16.5759 63.7166 16.6664 63.6611 16.7446C63.6057 16.8229 63.5327 16.8868 63.448 16.9308C63.3634 16.9749 63.2696 16.998 63.1744 16.9982Z" fill="#E1B168"/>
<path d="M88.1744 16.9982C88.0481 16.9987 87.9249 16.9588 87.8223 16.8844L82.9991 13.3467L78.1758 16.8844C78.0728 16.96 77.9487 17.0005 77.8214 17C77.6941 16.9995 77.5702 16.9581 77.4677 16.8817C77.3652 16.8054 77.2894 16.698 77.2512 16.5752C77.213 16.4523 77.2144 16.3204 77.2552 16.1984L79.1363 10.5615L74.2609 7.17903C74.1553 7.10584 74.0756 7.00041 74.0335 6.87814C73.9913 6.75586 73.9889 6.62315 74.0266 6.4994C74.0643 6.37564 74.1402 6.26733 74.243 6.19028C74.3459 6.11323 74.4705 6.07149 74.5985 6.07115H80.6131L82.4283 0.419828C82.4674 0.297818 82.5437 0.191473 82.6462 0.116049C82.7488 0.040626 82.8723 0 82.9991 0C83.1258 0 83.2494 0.040626 83.3519 0.116049C83.4545 0.191473 83.5308 0.297818 83.5699 0.419828L85.385 6.07305H91.3997C91.5278 6.07298 91.6526 6.11444 91.7558 6.19134C91.859 6.26824 91.9352 6.37654 91.9731 6.50039C92.011 6.62424 92.0088 6.75713 91.9667 6.87959C91.9246 7.00205 91.8448 7.10765 91.7391 7.18092L86.8618 10.5615L88.7418 16.1969C88.7723 16.2881 88.7809 16.3854 88.7668 16.4806C88.7528 16.5759 88.7166 16.6664 88.6611 16.7446C88.6057 16.8229 88.5327 16.8868 88.448 16.9308C88.3634 16.9749 88.2696 16.998 88.1744 16.9982Z" fill="#E1B168"/>
<path d="M113.174 16.9982C113.048 16.9987 112.925 16.9588 112.822 16.8844L107.999 13.3467L103.176 16.8844C103.073 16.96 102.949 17.0005 102.821 17C102.694 16.9995 102.57 16.9581 102.468 16.8817C102.365 16.8054 102.289 16.698 102.251 16.5752C102.213 16.4523 102.214 16.3204 102.255 16.1984L104.136 10.5615L99.2609 7.17903C99.1553 7.10584 99.0756 7.00041 99.0335 6.87814C98.9913 6.75586 98.9889 6.62315 99.0266 6.4994C99.0643 6.37564 99.1402 6.26733 99.243 6.19028C99.3459 6.11323 99.4705 6.07149 99.5985 6.07115H105.613L107.428 0.419828C107.467 0.297818 107.544 0.191473 107.646 0.116049C107.749 0.040626 107.872 0 107.999 0C108.126 0 108.249 0.040626 108.352 0.116049C108.454 0.191473 108.531 0.297818 108.57 0.419828L110.385 6.07305H116.4C116.528 6.07298 116.653 6.11444 116.756 6.19134C116.859 6.26824 116.935 6.37654 116.973 6.50039C117.011 6.62424 117.009 6.75713 116.967 6.87959C116.925 7.00205 116.845 7.10765 116.739 7.18092L111.862 10.5615L113.742 16.1969C113.772 16.2881 113.781 16.3854 113.767 16.4806C113.753 16.5759 113.717 16.6664 113.661 16.7446C113.606 16.8229 113.533 16.8868 113.448 16.9308C113.363 16.9749 113.27 16.998 113.174 16.9982Z" fill="#E1B168"/>
</svg>
