<svg width="284" height="283" viewBox="0 0 284 283" fill="none" xmlns="http://www.w3.org/2000/svg">
<mask id="path-1-inside-1_86_47" fill="white">
<path d="M131.307 8.5861C133.839 -2.86203 150.161 -2.86203 152.693 8.5861C154.841 18.2984 167.78 20.3477 172.824 11.7746C178.77 1.66929 194.293 6.71281 193.163 18.3831C192.205 28.2839 203.877 34.2312 211.324 27.6365C220.102 19.8632 233.306 29.4566 228.626 40.2067C224.655 49.3269 233.918 58.59 243.038 54.6192C253.788 49.9388 263.382 63.1429 255.608 71.9206C249.014 79.3674 254.961 91.0396 264.862 90.0814C276.532 88.9521 281.575 104.474 271.47 110.42C262.897 115.465 264.946 128.404 274.659 130.552C286.107 133.084 286.107 149.405 274.659 151.938C264.946 154.086 262.897 167.025 271.47 172.069C281.575 178.015 276.532 193.537 264.862 192.408C254.961 191.45 249.014 203.122 255.608 210.569C263.382 219.346 253.788 232.551 243.038 227.87C233.918 223.899 224.655 233.163 228.626 242.283C233.306 253.033 220.102 262.626 211.324 254.853C203.877 248.258 192.205 254.205 193.163 264.106C194.293 275.777 178.77 280.82 172.824 270.715C167.78 262.142 154.841 264.191 152.693 273.903C150.161 285.351 133.839 285.351 131.307 273.903C129.159 264.191 116.22 262.142 111.176 270.715C105.23 280.82 89.7075 275.777 90.8368 264.106C91.7949 254.205 80.1227 248.258 72.676 254.853C63.8983 262.626 50.6942 253.033 55.3746 242.283C59.3453 233.163 50.0822 223.899 40.9621 227.87C30.2119 232.551 20.6186 219.346 28.3919 210.569C34.9866 203.122 29.0393 191.45 19.1385 192.408C7.46817 193.537 2.42465 178.015 12.53 172.069C21.103 167.025 19.0538 154.086 9.34147 151.938C-2.10666 149.405 -2.10666 133.084 9.34147 130.552C19.0538 128.404 21.103 115.465 12.53 110.42C2.42466 104.474 7.46817 88.9521 19.1385 90.0814C29.0393 91.0396 34.9866 79.3674 28.3919 71.9206C20.6186 63.1429 30.2119 49.9388 40.9621 54.6192C50.0822 58.59 59.3453 49.3269 55.3746 40.2067C50.6942 29.4566 63.8983 19.8632 72.676 27.6365C80.1227 34.2312 91.7949 28.2839 90.8368 18.3831C89.7075 6.7128 105.23 1.66929 111.176 11.7746C116.22 20.3477 129.159 18.2984 131.307 8.5861Z"/>
<path d="M139.081 30.0767C139.353 26.4665 144.647 26.4665 144.919 30.0767C145.176 33.5017 150.103 33.7599 150.717 30.3806C151.365 26.8185 156.631 27.372 156.523 30.9907C156.421 34.4239 161.294 35.1958 162.258 31.8991C163.274 28.4242 168.453 29.5251 167.968 33.1128C167.508 36.5165 172.274 37.7935 173.577 34.6157C174.951 31.266 179.986 32.9022 179.129 36.4196C178.315 39.7565 182.921 41.5247 184.55 38.5005C186.266 35.3128 191.103 37.4664 189.883 40.8748C188.725 44.1085 193.121 46.3484 195.056 43.511C197.096 40.5201 201.682 43.1676 200.112 46.4297C198.622 49.5247 202.76 52.2119 204.982 49.5922C207.323 46.8311 211.607 49.9433 209.704 53.0235C207.899 55.9457 211.734 59.0508 214.217 56.6777C216.834 54.1764 220.769 57.7193 218.555 60.5838C216.455 63.3014 219.943 66.7902 222.661 64.6897C225.525 62.4757 229.068 66.4105 226.567 69.0278C224.194 71.511 227.299 75.3453 230.221 73.5404C233.301 71.6379 236.414 75.9216 233.653 78.2631C231.033 80.4846 233.72 84.6225 236.815 83.1329C240.077 81.5629 242.725 86.1483 239.734 88.1884C236.896 90.1239 239.136 94.5201 242.37 93.3621C245.778 92.1416 247.932 96.9787 244.744 98.695C241.72 100.323 243.488 104.93 246.825 104.116C250.343 103.258 251.979 108.294 248.629 109.668C245.451 110.971 246.728 115.737 250.132 115.277C253.72 114.791 254.821 119.971 251.346 120.987C248.049 121.95 248.821 126.824 252.254 126.722C255.873 126.614 256.426 131.88 252.864 132.527C249.485 133.141 249.743 138.068 253.168 138.326C256.778 138.597 256.778 143.892 253.168 144.163C249.743 144.421 249.485 149.348 252.864 149.962C256.426 150.609 255.873 155.875 252.254 155.768C248.821 155.666 248.049 160.539 251.346 161.503C254.821 162.519 253.72 167.698 250.132 167.213C246.728 166.753 245.451 171.518 248.629 172.822C251.979 174.195 250.343 179.231 246.825 178.373C243.488 177.56 241.72 182.166 244.744 183.794C247.932 185.511 245.778 190.348 242.37 189.127C239.136 187.969 236.896 192.365 239.734 194.301C242.725 196.341 240.077 200.927 236.815 199.356C233.72 197.867 231.033 202.005 233.653 204.226C236.414 206.568 233.301 210.851 230.221 208.949C227.299 207.144 224.194 210.978 226.567 213.462C229.068 216.079 225.525 220.014 222.661 217.8C219.943 215.699 216.455 219.188 218.555 221.906C220.769 224.77 216.834 228.313 214.217 225.812C211.734 223.439 207.899 226.544 209.704 229.466C211.607 232.546 207.323 235.658 204.982 232.897C202.76 230.278 198.622 232.965 200.112 236.06C201.682 239.322 197.096 241.969 195.056 238.978C193.121 236.141 188.725 238.381 189.883 241.615C191.103 245.023 186.266 247.177 184.55 243.989C182.921 240.965 178.315 242.733 179.129 246.07C179.986 249.587 174.951 251.223 173.577 247.874C172.274 244.696 167.508 245.973 167.968 249.377C168.453 252.964 163.274 254.065 162.258 250.59C161.294 247.294 156.421 248.065 156.523 251.499C156.631 255.117 151.365 255.671 150.717 252.109C150.103 248.729 145.176 248.988 144.919 252.413C144.647 256.023 139.353 256.023 139.081 252.413C138.824 248.988 133.897 248.729 133.283 252.109C132.635 255.671 127.37 255.117 127.477 251.499C127.579 248.065 122.706 247.294 121.742 250.59C120.726 254.065 115.547 252.964 116.032 249.377C116.492 245.973 111.726 244.696 110.423 247.874C109.049 251.223 104.014 249.587 104.871 246.07C105.685 242.733 101.079 240.965 99.4504 243.989C97.7341 247.177 92.897 245.023 94.1175 241.615C95.2754 238.381 90.8793 236.141 88.9438 238.978C86.9037 241.969 82.3182 239.322 83.8883 236.06C85.3779 232.965 81.2399 230.278 79.0185 232.897C76.6769 235.658 72.3933 232.546 74.2958 229.466C76.1007 226.544 72.2663 223.439 69.7832 225.812C67.1659 228.313 63.231 224.77 65.4451 221.906C67.5455 219.188 64.0568 215.699 61.3392 217.8C58.4747 220.014 54.9318 216.079 57.4331 213.462C59.8061 210.978 56.7011 207.144 53.7789 208.949C50.6987 210.851 47.5864 206.568 50.3476 204.226C52.9672 202.005 50.28 197.867 47.1851 199.356C43.9229 200.927 41.2755 196.341 44.2663 194.301C47.1038 192.365 44.8638 187.969 41.6302 189.127C38.2218 190.348 36.0681 185.511 39.2558 183.794C42.2801 182.166 40.5119 177.56 37.1749 178.373C33.6576 179.231 32.0214 174.195 35.371 172.822C38.5489 171.518 37.2719 166.753 33.8682 167.213C30.2805 167.698 29.1796 162.519 32.6545 161.503C35.9512 160.539 35.1793 155.666 31.7461 155.768C28.1273 155.875 27.5739 150.609 31.1359 149.962C34.5153 149.348 34.2571 144.421 30.832 144.163C27.2219 143.892 27.2219 138.597 30.832 138.326C34.2571 138.068 34.5153 133.141 31.1359 132.527C27.5739 131.88 28.1273 126.614 31.7461 126.722C35.1793 126.824 35.9512 121.95 32.6545 120.987C29.1796 119.971 30.2805 114.791 33.8682 115.277C37.2719 115.737 38.5489 110.971 35.371 109.668C32.0214 108.294 33.6576 103.258 37.1749 104.116C40.5119 104.93 42.2801 100.323 39.2558 98.695C36.0681 96.9787 38.2218 92.1416 41.6302 93.3621C44.8638 94.5201 47.1038 90.1239 44.2663 88.1884C41.2755 86.1483 43.9229 81.5629 47.1851 83.1329C50.28 84.6225 52.9672 80.4846 50.3476 78.2631C47.5864 75.9216 50.6987 71.6379 53.7789 73.5404C56.7011 75.3453 59.8061 71.511 57.4331 69.0278C54.9318 66.4105 58.4747 62.4757 61.3392 64.6897C64.0567 66.7902 67.5455 63.3014 65.4451 60.5838C63.231 57.7193 67.1659 54.1764 69.7832 56.6777C72.2663 59.0508 76.1007 55.9457 74.2958 53.0235C72.3933 49.9433 76.6769 46.8311 79.0185 49.5922C81.24 52.2119 85.3779 49.5247 83.8883 46.4297C82.3182 43.1676 86.9037 40.5201 88.9438 43.511C90.8793 46.3484 95.2754 44.1085 94.1175 40.8748C92.897 37.4664 97.7341 35.3128 99.4504 38.5005C101.079 41.5247 105.685 39.7565 104.871 36.4196C104.014 32.9022 109.049 31.266 110.423 34.6157C111.726 37.7935 116.492 36.5165 116.032 33.1128C115.547 29.5251 120.726 28.4242 121.742 31.8991C122.706 35.1958 127.579 34.4239 127.477 30.9907C127.37 27.372 132.635 26.8185 133.283 30.3806C133.897 33.7599 138.824 33.5017 139.081 30.0767Z"/>
<path d="M138.094 48.9015C139.019 44.7201 144.981 44.72 145.906 48.9015L149.956 67.2148C150.741 70.7623 155.467 71.5108 157.309 68.3795L166.821 52.2142C168.993 48.5232 174.662 50.3654 174.25 54.628L172.443 73.2968C172.093 76.9131 176.357 79.0854 179.077 76.6766L193.118 64.2418C196.324 61.4026 201.147 64.9066 199.438 68.8331L191.95 86.0299C190.5 89.3611 193.883 92.7445 197.215 91.2942L214.411 83.807C218.338 82.0975 221.842 86.9203 219.003 90.1264L206.568 104.168C204.159 106.888 206.331 111.151 209.948 110.801L228.617 108.995C232.879 108.582 234.721 114.252 231.03 116.423L214.865 125.935C211.734 127.778 212.482 132.504 216.03 133.288L234.343 137.339C238.525 138.264 238.525 144.225 234.343 145.15L216.03 149.201C212.482 149.986 211.734 154.712 214.865 156.554L231.03 166.066C234.721 168.238 232.879 173.907 228.617 173.495L209.948 171.688C206.332 171.338 204.159 175.601 206.568 178.321L219.003 192.363C221.842 195.569 218.338 200.392 214.411 198.682L197.215 191.195C193.883 189.745 190.5 193.128 191.95 196.459L199.438 213.656C201.147 217.583 196.324 221.087 193.118 218.247L179.077 205.813C176.357 203.404 172.093 205.576 172.443 209.192L174.25 227.861C174.662 232.124 168.993 233.966 166.821 230.275L157.309 214.11C155.467 210.978 150.741 211.727 149.956 215.274L145.906 233.588C144.981 237.769 139.019 237.769 138.094 233.588L134.044 215.274C133.259 211.727 128.533 210.978 126.69 214.11L117.179 230.275C115.007 233.966 109.337 232.124 109.75 227.861L111.556 209.193C111.906 205.576 107.643 203.404 104.923 205.813L90.8817 218.247C87.6756 221.087 82.8528 217.583 84.5623 213.656L92.0495 196.459C93.4998 193.128 90.1164 189.745 86.7852 191.195L69.5884 198.682C65.6619 200.392 62.1579 195.569 64.9971 192.363L77.4319 178.321C79.8407 175.601 77.6684 171.338 74.0521 171.688L55.3833 173.495C51.1207 173.907 49.2785 168.238 52.9695 166.066L69.1348 156.554C72.2661 154.712 71.5176 149.986 67.9702 149.201L49.6568 145.15C45.4754 144.225 45.4753 138.264 49.6568 137.339L67.9701 133.288C71.5176 132.504 72.2661 127.778 69.1348 125.935L52.9695 116.423C49.2785 114.252 51.1207 108.582 55.3833 108.995L74.0521 110.801C77.6684 111.151 79.8407 106.888 77.4319 104.168L64.9971 90.1264C62.1579 86.9203 65.6619 82.0975 69.5884 83.807L86.7852 91.2941C90.1164 92.7445 93.4998 89.3611 92.0495 86.0299L84.5623 68.8331C82.8528 64.9066 87.6756 61.4026 90.8817 64.2418L104.923 76.6766C107.643 79.0853 111.906 76.9131 111.556 73.2968L109.75 54.628C109.337 50.3654 115.007 48.5232 117.179 52.2142L126.69 68.3794C128.533 71.5108 133.259 70.7623 134.044 67.2148L138.094 48.9015Z"/>
</mask>
<path d="M131.307 8.5861C133.839 -2.86203 150.161 -2.86203 152.693 8.5861C154.841 18.2984 167.78 20.3477 172.824 11.7746C178.77 1.66929 194.293 6.71281 193.163 18.3831C192.205 28.2839 203.877 34.2312 211.324 27.6365C220.102 19.8632 233.306 29.4566 228.626 40.2067C224.655 49.3269 233.918 58.59 243.038 54.6192C253.788 49.9388 263.382 63.1429 255.608 71.9206C249.014 79.3674 254.961 91.0396 264.862 90.0814C276.532 88.9521 281.575 104.474 271.47 110.42C262.897 115.465 264.946 128.404 274.659 130.552C286.107 133.084 286.107 149.405 274.659 151.938C264.946 154.086 262.897 167.025 271.47 172.069C281.575 178.015 276.532 193.537 264.862 192.408C254.961 191.45 249.014 203.122 255.608 210.569C263.382 219.346 253.788 232.551 243.038 227.87C233.918 223.899 224.655 233.163 228.626 242.283C233.306 253.033 220.102 262.626 211.324 254.853C203.877 248.258 192.205 254.205 193.163 264.106C194.293 275.777 178.77 280.82 172.824 270.715C167.78 262.142 154.841 264.191 152.693 273.903C150.161 285.351 133.839 285.351 131.307 273.903C129.159 264.191 116.22 262.142 111.176 270.715C105.23 280.82 89.7075 275.777 90.8368 264.106C91.7949 254.205 80.1227 248.258 72.676 254.853C63.8983 262.626 50.6942 253.033 55.3746 242.283C59.3453 233.163 50.0822 223.899 40.9621 227.87C30.2119 232.551 20.6186 219.346 28.3919 210.569C34.9866 203.122 29.0393 191.45 19.1385 192.408C7.46817 193.537 2.42465 178.015 12.53 172.069C21.103 167.025 19.0538 154.086 9.34147 151.938C-2.10666 149.405 -2.10666 133.084 9.34147 130.552C19.0538 128.404 21.103 115.465 12.53 110.42C2.42466 104.474 7.46817 88.9521 19.1385 90.0814C29.0393 91.0396 34.9866 79.3674 28.3919 71.9206C20.6186 63.1429 30.2119 49.9388 40.9621 54.6192C50.0822 58.59 59.3453 49.3269 55.3746 40.2067C50.6942 29.4566 63.8983 19.8632 72.676 27.6365C80.1227 34.2312 91.7949 28.2839 90.8368 18.3831C89.7075 6.7128 105.23 1.66929 111.176 11.7746C116.22 20.3477 129.159 18.2984 131.307 8.5861Z" stroke="#E1B168" stroke-width="4" mask="url(#path-1-inside-1_86_47)"/>
<path d="M139.081 30.0767C139.353 26.4665 144.647 26.4665 144.919 30.0767C145.176 33.5017 150.103 33.7599 150.717 30.3806C151.365 26.8185 156.631 27.372 156.523 30.9907C156.421 34.4239 161.294 35.1958 162.258 31.8991C163.274 28.4242 168.453 29.5251 167.968 33.1128C167.508 36.5165 172.274 37.7935 173.577 34.6157C174.951 31.266 179.986 32.9022 179.129 36.4196C178.315 39.7565 182.921 41.5247 184.55 38.5005C186.266 35.3128 191.103 37.4664 189.883 40.8748C188.725 44.1085 193.121 46.3484 195.056 43.511C197.096 40.5201 201.682 43.1676 200.112 46.4297C198.622 49.5247 202.76 52.2119 204.982 49.5922C207.323 46.8311 211.607 49.9433 209.704 53.0235C207.899 55.9457 211.734 59.0508 214.217 56.6777C216.834 54.1764 220.769 57.7193 218.555 60.5838C216.455 63.3014 219.943 66.7902 222.661 64.6897C225.525 62.4757 229.068 66.4105 226.567 69.0278C224.194 71.511 227.299 75.3453 230.221 73.5404C233.301 71.6379 236.414 75.9216 233.653 78.2631C231.033 80.4846 233.72 84.6225 236.815 83.1329C240.077 81.5629 242.725 86.1483 239.734 88.1884C236.896 90.1239 239.136 94.5201 242.37 93.3621C245.778 92.1416 247.932 96.9787 244.744 98.695C241.72 100.323 243.488 104.93 246.825 104.116C250.343 103.258 251.979 108.294 248.629 109.668C245.451 110.971 246.728 115.737 250.132 115.277C253.72 114.791 254.821 119.971 251.346 120.987C248.049 121.95 248.821 126.824 252.254 126.722C255.873 126.614 256.426 131.88 252.864 132.527C249.485 133.141 249.743 138.068 253.168 138.326C256.778 138.597 256.778 143.892 253.168 144.163C249.743 144.421 249.485 149.348 252.864 149.962C256.426 150.609 255.873 155.875 252.254 155.768C248.821 155.666 248.049 160.539 251.346 161.503C254.821 162.519 253.72 167.698 250.132 167.213C246.728 166.753 245.451 171.518 248.629 172.822C251.979 174.195 250.343 179.231 246.825 178.373C243.488 177.56 241.72 182.166 244.744 183.794C247.932 185.511 245.778 190.348 242.37 189.127C239.136 187.969 236.896 192.365 239.734 194.301C242.725 196.341 240.077 200.927 236.815 199.356C233.72 197.867 231.033 202.005 233.653 204.226C236.414 206.568 233.301 210.851 230.221 208.949C227.299 207.144 224.194 210.978 226.567 213.462C229.068 216.079 225.525 220.014 222.661 217.8C219.943 215.699 216.455 219.188 218.555 221.906C220.769 224.77 216.834 228.313 214.217 225.812C211.734 223.439 207.899 226.544 209.704 229.466C211.607 232.546 207.323 235.658 204.982 232.897C202.76 230.278 198.622 232.965 200.112 236.06C201.682 239.322 197.096 241.969 195.056 238.978C193.121 236.141 188.725 238.381 189.883 241.615C191.103 245.023 186.266 247.177 184.55 243.989C182.921 240.965 178.315 242.733 179.129 246.07C179.986 249.587 174.951 251.223 173.577 247.874C172.274 244.696 167.508 245.973 167.968 249.377C168.453 252.964 163.274 254.065 162.258 250.59C161.294 247.294 156.421 248.065 156.523 251.499C156.631 255.117 151.365 255.671 150.717 252.109C150.103 248.729 145.176 248.988 144.919 252.413C144.647 256.023 139.353 256.023 139.081 252.413C138.824 248.988 133.897 248.729 133.283 252.109C132.635 255.671 127.37 255.117 127.477 251.499C127.579 248.065 122.706 247.294 121.742 250.59C120.726 254.065 115.547 252.964 116.032 249.377C116.492 245.973 111.726 244.696 110.423 247.874C109.049 251.223 104.014 249.587 104.871 246.07C105.685 242.733 101.079 240.965 99.4504 243.989C97.7341 247.177 92.897 245.023 94.1175 241.615C95.2754 238.381 90.8793 236.141 88.9438 238.978C86.9037 241.969 82.3182 239.322 83.8883 236.06C85.3779 232.965 81.2399 230.278 79.0185 232.897C76.6769 235.658 72.3933 232.546 74.2958 229.466C76.1007 226.544 72.2663 223.439 69.7832 225.812C67.1659 228.313 63.231 224.77 65.4451 221.906C67.5455 219.188 64.0568 215.699 61.3392 217.8C58.4747 220.014 54.9318 216.079 57.4331 213.462C59.8061 210.978 56.7011 207.144 53.7789 208.949C50.6987 210.851 47.5864 206.568 50.3476 204.226C52.9672 202.005 50.28 197.867 47.1851 199.356C43.9229 200.927 41.2755 196.341 44.2663 194.301C47.1038 192.365 44.8638 187.969 41.6302 189.127C38.2218 190.348 36.0681 185.511 39.2558 183.794C42.2801 182.166 40.5119 177.56 37.1749 178.373C33.6576 179.231 32.0214 174.195 35.371 172.822C38.5489 171.518 37.2719 166.753 33.8682 167.213C30.2805 167.698 29.1796 162.519 32.6545 161.503C35.9512 160.539 35.1793 155.666 31.7461 155.768C28.1273 155.875 27.5739 150.609 31.1359 149.962C34.5153 149.348 34.2571 144.421 30.832 144.163C27.2219 143.892 27.2219 138.597 30.832 138.326C34.2571 138.068 34.5153 133.141 31.1359 132.527C27.5739 131.88 28.1273 126.614 31.7461 126.722C35.1793 126.824 35.9512 121.95 32.6545 120.987C29.1796 119.971 30.2805 114.791 33.8682 115.277C37.2719 115.737 38.5489 110.971 35.371 109.668C32.0214 108.294 33.6576 103.258 37.1749 104.116C40.5119 104.93 42.2801 100.323 39.2558 98.695C36.0681 96.9787 38.2218 92.1416 41.6302 93.3621C44.8638 94.5201 47.1038 90.1239 44.2663 88.1884C41.2755 86.1483 43.9229 81.5629 47.1851 83.1329C50.28 84.6225 52.9672 80.4846 50.3476 78.2631C47.5864 75.9216 50.6987 71.6379 53.7789 73.5404C56.7011 75.3453 59.8061 71.511 57.4331 69.0278C54.9318 66.4105 58.4747 62.4757 61.3392 64.6897C64.0567 66.7902 67.5455 63.3014 65.4451 60.5838C63.231 57.7193 67.1659 54.1764 69.7832 56.6777C72.2663 59.0508 76.1007 55.9457 74.2958 53.0235C72.3933 49.9433 76.6769 46.8311 79.0185 49.5922C81.24 52.2119 85.3779 49.5247 83.8883 46.4297C82.3182 43.1676 86.9037 40.5201 88.9438 43.511C90.8793 46.3484 95.2754 44.1085 94.1175 40.8748C92.897 37.4664 97.7341 35.3128 99.4504 38.5005C101.079 41.5247 105.685 39.7565 104.871 36.4196C104.014 32.9022 109.049 31.266 110.423 34.6157C111.726 37.7935 116.492 36.5165 116.032 33.1128C115.547 29.5251 120.726 28.4242 121.742 31.8991C122.706 35.1958 127.579 34.4239 127.477 30.9907C127.37 27.372 132.635 26.8185 133.283 30.3806C133.897 33.7599 138.824 33.5017 139.081 30.0767Z" stroke="#E1B168" stroke-width="4" mask="url(#path-1-inside-1_86_47)"/>
<path d="M138.094 48.9015C139.019 44.7201 144.981 44.72 145.906 48.9015L149.956 67.2148C150.741 70.7623 155.467 71.5108 157.309 68.3795L166.821 52.2142C168.993 48.5232 174.662 50.3654 174.25 54.628L172.443 73.2968C172.093 76.9131 176.357 79.0854 179.077 76.6766L193.118 64.2418C196.324 61.4026 201.147 64.9066 199.438 68.8331L191.95 86.0299C190.5 89.3611 193.883 92.7445 197.215 91.2942L214.411 83.807C218.338 82.0975 221.842 86.9203 219.003 90.1264L206.568 104.168C204.159 106.888 206.331 111.151 209.948 110.801L228.617 108.995C232.879 108.582 234.721 114.252 231.03 116.423L214.865 125.935C211.734 127.778 212.482 132.504 216.03 133.288L234.343 137.339C238.525 138.264 238.525 144.225 234.343 145.15L216.03 149.201C212.482 149.986 211.734 154.712 214.865 156.554L231.03 166.066C234.721 168.238 232.879 173.907 228.617 173.495L209.948 171.688C206.332 171.338 204.159 175.601 206.568 178.321L219.003 192.363C221.842 195.569 218.338 200.392 214.411 198.682L197.215 191.195C193.883 189.745 190.5 193.128 191.95 196.459L199.438 213.656C201.147 217.583 196.324 221.087 193.118 218.247L179.077 205.813C176.357 203.404 172.093 205.576 172.443 209.192L174.25 227.861C174.662 232.124 168.993 233.966 166.821 230.275L157.309 214.11C155.467 210.978 150.741 211.727 149.956 215.274L145.906 233.588C144.981 237.769 139.019 237.769 138.094 233.588L134.044 215.274C133.259 211.727 128.533 210.978 126.69 214.11L117.179 230.275C115.007 233.966 109.337 232.124 109.75 227.861L111.556 209.193C111.906 205.576 107.643 203.404 104.923 205.813L90.8817 218.247C87.6756 221.087 82.8528 217.583 84.5623 213.656L92.0495 196.459C93.4998 193.128 90.1164 189.745 86.7852 191.195L69.5884 198.682C65.6619 200.392 62.1579 195.569 64.9971 192.363L77.4319 178.321C79.8407 175.601 77.6684 171.338 74.0521 171.688L55.3833 173.495C51.1207 173.907 49.2785 168.238 52.9695 166.066L69.1348 156.554C72.2661 154.712 71.5176 149.986 67.9702 149.201L49.6568 145.15C45.4754 144.225 45.4753 138.264 49.6568 137.339L67.9701 133.288C71.5176 132.504 72.2661 127.778 69.1348 125.935L52.9695 116.423C49.2785 114.252 51.1207 108.582 55.3833 108.995L74.0521 110.801C77.6684 111.151 79.8407 106.888 77.4319 104.168L64.9971 90.1264C62.1579 86.9203 65.6619 82.0975 69.5884 83.807L86.7852 91.2941C90.1164 92.7445 93.4998 89.3611 92.0495 86.0299L84.5623 68.8331C82.8528 64.9066 87.6756 61.4026 90.8817 64.2418L104.923 76.6766C107.643 79.0853 111.906 76.9131 111.556 73.2968L109.75 54.628C109.337 50.3654 115.007 48.5232 117.179 52.2142L126.69 68.3794C128.533 71.5108 133.259 70.7623 134.044 67.2148L138.094 48.9015Z" stroke="#E1B168" stroke-width="4" mask="url(#path-1-inside-1_86_47)"/>
</svg>
