<svg width="363" height="363" viewBox="0 0 363 363" fill="none" xmlns="http://www.w3.org/2000/svg">
<path d="M171.784 49.241C174.085 38.8382 188.915 38.8382 191.216 49.241C193.561 59.8401 207.681 62.0765 213.186 52.7206C218.589 43.5381 232.694 48.121 231.668 58.7257C230.622 69.5306 243.36 76.0209 251.487 68.8241C259.463 61.7606 271.462 70.4779 267.209 80.2464C262.875 90.1994 272.984 100.308 282.937 95.975C292.706 91.722 301.423 103.72 294.36 111.697C287.163 119.823 293.653 132.561 304.458 131.516C315.063 130.489 319.646 144.594 310.463 149.997C301.107 155.503 303.343 169.623 313.943 171.967C324.345 174.268 324.345 189.099 313.943 191.4C303.343 193.744 301.107 207.865 310.463 213.37C319.646 218.773 315.063 232.878 304.458 231.852C293.653 230.806 287.163 243.544 294.36 251.671C301.423 259.647 292.706 271.645 282.937 267.392C272.984 263.059 262.875 273.168 267.209 283.121C271.462 292.889 259.463 301.607 251.487 294.543C243.36 287.346 230.622 293.837 231.668 304.641C232.694 315.246 218.589 319.829 213.186 310.647C207.681 301.291 193.561 303.527 191.216 314.126C188.915 324.529 174.085 324.529 171.784 314.126C169.439 303.527 155.319 301.291 149.814 310.647C144.411 319.829 130.306 315.246 131.332 304.641C132.378 293.837 119.64 287.346 111.513 294.543C103.537 301.607 91.5384 292.889 95.7914 283.121C100.125 273.168 90.0158 263.059 80.0628 267.392C70.2943 271.645 61.577 259.647 68.6405 251.671C75.8373 243.544 69.347 230.806 58.5421 231.852C47.9374 232.878 43.3545 218.773 52.537 213.37C61.8929 207.865 59.6565 193.744 49.0574 191.4C38.6546 189.099 38.6546 174.268 49.0574 171.967C59.6565 169.623 61.8929 155.503 52.537 149.997C43.3545 144.594 47.9374 130.489 58.5421 131.516C69.347 132.561 75.8373 119.823 68.6405 111.697C61.577 103.72 70.2943 91.722 80.0628 95.975C90.0158 100.308 100.125 90.1994 95.7914 80.2464C91.5384 70.4779 103.537 61.7606 111.513 68.8241C119.64 76.0209 132.378 69.5306 131.332 58.7257C130.306 48.121 144.411 43.5381 149.814 52.7206C155.319 62.0765 169.439 59.8401 171.784 49.241Z" stroke="#40464F" stroke-width="2"/>
<path d="M179.578 70.5905C179.757 68.2137 183.243 68.2137 183.422 70.5905C183.767 75.1858 190.377 75.5322 191.201 70.9982C191.627 68.6531 195.094 69.0176 195.023 71.3999C194.887 76.0061 201.425 77.0416 202.718 72.6186C203.387 70.331 206.797 71.0557 206.477 73.4177C205.86 77.9843 212.254 79.6976 214.002 75.434C214.906 73.2288 218.222 74.3059 217.657 76.6216C216.566 81.0986 222.746 83.4709 224.93 79.4134C226.06 77.3148 229.245 78.7327 228.441 80.9766C226.888 85.315 232.786 88.3202 235.382 84.5134C236.725 82.5444 239.744 84.2873 238.711 86.435C236.712 90.5872 242.264 94.1925 245.244 90.6779C246.786 88.8601 249.606 90.909 248.353 92.9369C245.932 96.8575 251.076 101.023 254.408 97.8396C256.131 96.1928 258.721 98.5253 257.264 100.411C254.446 104.057 259.126 108.738 262.772 105.92C264.658 104.462 266.991 107.053 265.344 108.776C262.16 112.107 266.326 117.252 270.247 114.83C272.275 113.578 274.324 116.398 272.506 117.939C268.991 120.92 272.596 126.471 276.749 124.473C278.896 123.439 280.639 126.458 278.67 127.801C274.863 130.398 277.869 136.296 282.207 134.742C284.451 133.939 285.869 137.123 283.77 138.253C279.713 140.438 282.085 146.618 286.562 145.526C288.878 144.962 289.955 148.277 287.75 149.181C283.486 150.93 285.199 157.324 289.766 156.706C292.128 156.387 292.853 159.797 290.565 160.466C286.142 161.759 287.177 168.297 291.784 168.16C294.166 168.089 294.531 171.556 292.185 171.982C287.651 172.806 287.998 179.417 292.593 179.762C294.97 179.941 294.97 183.427 292.593 183.605C287.998 183.951 287.651 190.561 292.185 191.385C294.531 191.811 294.166 195.278 291.784 195.207C287.177 195.07 286.142 201.608 290.565 202.902C292.853 203.57 292.128 206.98 289.766 206.661C285.199 206.043 283.486 212.437 287.75 214.186C289.955 215.09 288.878 218.405 286.562 217.841C282.085 216.749 279.713 222.929 283.77 225.114C285.869 226.244 284.451 229.428 282.207 228.625C277.869 227.071 274.863 232.969 278.67 235.566C280.639 236.909 278.896 239.928 276.749 238.894C272.596 236.896 268.991 242.447 272.506 245.428C274.324 246.969 272.275 249.79 270.247 248.537C266.326 246.116 262.16 251.26 265.344 254.591C266.991 256.314 264.658 258.905 262.772 257.447C259.126 254.629 254.446 259.31 257.264 262.956C258.721 264.842 256.131 267.174 254.408 265.528C251.076 262.344 245.932 266.51 248.353 270.43C249.606 272.458 246.786 274.507 245.244 272.689C242.264 269.175 236.712 272.78 238.711 276.932C239.744 279.08 236.725 280.823 235.382 278.854C232.786 275.047 226.888 278.052 228.441 282.391C229.245 284.635 226.06 286.052 224.93 283.954C222.746 279.896 216.566 282.269 217.657 286.746C218.222 289.061 214.906 290.138 214.002 287.933C212.254 283.67 205.86 285.383 206.477 289.949C206.797 292.312 203.387 293.036 202.718 290.749C201.425 286.326 194.887 287.361 195.023 291.967C195.094 294.35 191.627 294.714 191.201 292.369C190.377 287.835 183.767 288.181 183.422 292.777C183.243 295.153 179.757 295.153 179.578 292.777C179.233 288.181 172.623 287.835 171.799 292.369C171.373 294.714 167.906 294.35 167.977 291.967C168.113 287.361 161.575 286.326 160.282 290.749C159.613 293.036 156.203 292.312 156.523 289.949C157.14 285.383 150.746 283.67 148.998 287.933C148.094 290.138 144.778 289.061 145.343 286.746C146.434 282.269 140.254 279.896 138.07 283.954C136.94 286.052 133.755 284.635 134.559 282.391C136.112 278.052 130.214 275.047 127.618 278.854C126.275 280.823 123.256 279.08 124.289 276.932C126.288 272.78 120.736 269.175 117.756 272.689C116.214 274.507 113.394 272.458 114.647 270.43C117.068 266.51 111.924 262.344 108.592 265.528C106.869 267.174 104.279 264.842 105.736 262.956C108.554 259.31 103.874 254.629 100.228 257.447C98.3417 258.905 96.0092 256.314 97.656 254.591C100.84 251.26 96.6739 246.115 92.7533 248.537C90.7254 249.79 88.6765 246.969 90.4943 245.428C94.0089 242.447 90.4036 236.896 86.2514 238.894C84.1037 239.928 82.3608 236.909 84.3298 235.566C88.1366 232.969 85.1314 227.071 80.793 228.625C78.5491 229.428 77.1312 226.244 79.2298 225.114C83.2873 222.929 80.915 216.749 76.438 217.841C74.1223 218.405 73.0452 215.09 75.2504 214.186C79.514 212.437 77.8007 206.043 73.2341 206.661C70.8721 206.98 70.1474 203.57 72.435 202.902C76.858 201.608 75.8225 195.07 71.2163 195.207C68.834 195.278 68.4695 191.811 70.8146 191.385C75.3486 190.561 75.0022 183.951 70.4069 183.605C68.0302 183.427 68.0302 179.941 70.4069 179.762C75.0022 179.417 75.3486 172.806 70.8146 171.982C68.4695 171.556 68.834 168.089 71.2163 168.16C75.8225 168.297 76.858 161.759 72.435 160.466C70.1474 159.797 70.8721 156.387 73.2341 156.706C77.8007 157.324 79.514 150.93 75.2504 149.181C73.0452 148.277 74.1223 144.962 76.438 145.526C80.9151 146.618 83.2873 140.438 79.2298 138.253C77.1312 137.123 78.5491 133.939 80.793 134.742C85.1314 136.296 88.1367 130.398 84.3298 127.801C82.3608 126.458 84.1037 123.439 86.2514 124.473C90.4037 126.471 94.0089 120.92 90.4943 117.939C88.6765 116.398 90.7254 113.578 92.7533 114.83C96.6739 117.252 100.84 112.107 97.6559 108.776C96.0092 107.053 98.3417 104.462 100.228 105.92C103.874 108.738 108.554 104.057 105.736 100.411C104.279 98.5253 106.869 96.1928 108.592 97.8395C111.924 101.023 117.068 96.8575 114.647 92.9369C113.394 90.909 116.214 88.8601 117.756 90.6779C120.736 94.1925 126.288 90.5873 124.289 86.435C123.256 84.2873 126.275 82.5443 127.618 84.5134C130.214 88.3202 136.112 85.315 134.559 80.9766C133.755 78.7326 136.94 77.3148 138.07 79.4134C140.254 83.4709 146.434 81.0987 145.343 76.6216C144.778 74.3059 148.094 73.2288 148.998 75.434C150.746 79.6976 157.14 77.9843 156.523 73.4177C156.203 71.0557 159.613 70.331 160.282 72.6186C161.575 77.0416 168.113 76.0061 167.977 71.3999C167.906 69.0176 171.373 68.6531 171.799 70.9982C172.623 75.5322 179.233 75.1857 179.578 70.5905Z" stroke="#40464F" stroke-width="2"/>
<path d="M178.571 89.5565C179.264 86.4203 183.736 86.4204 184.429 89.5564L188.48 107.87C189.461 112.304 195.368 113.24 197.671 109.326L207.183 93.1603C208.812 90.392 213.064 91.7737 212.755 94.9706L210.948 113.639C210.511 118.16 215.84 120.875 219.24 117.864L233.281 105.429C235.686 103.3 239.303 105.928 238.021 108.873L230.534 126.07C228.721 130.234 232.95 134.463 237.114 132.65L254.311 125.163C257.256 123.881 259.884 127.498 257.754 129.902L245.319 143.944C242.308 147.344 245.024 152.673 249.544 152.235L268.213 150.429C271.41 150.12 272.792 154.372 270.023 156.001L253.858 165.512C249.944 167.815 250.88 173.723 255.314 174.704L273.627 178.754C276.763 179.448 276.763 183.919 273.627 184.613L255.314 188.664C250.88 189.644 249.944 195.552 253.858 197.855L270.023 207.367C272.792 208.995 271.41 213.248 268.213 212.938L249.544 211.132C245.024 210.694 242.308 216.023 245.319 219.423L257.754 233.465C259.884 235.869 257.256 239.486 254.311 238.204L237.114 230.717C232.95 228.904 228.721 233.134 230.534 237.297L238.021 254.494C239.303 257.439 235.686 260.067 233.281 257.938L219.24 245.503C215.84 242.492 210.511 245.207 210.948 249.728L212.755 268.397C213.064 271.594 208.812 272.975 207.183 270.207L197.671 254.042C195.368 250.127 189.461 251.063 188.48 255.497L184.429 273.811C183.736 276.947 179.264 276.947 178.571 273.811L174.52 255.497C173.539 251.063 167.632 250.127 165.329 254.042L155.817 270.207C154.188 272.975 149.936 271.594 150.245 268.397L152.052 249.728C152.489 245.207 147.16 242.492 143.76 245.503L129.719 257.938C127.314 260.067 123.697 257.439 124.979 254.494L132.466 237.298C134.279 233.134 130.05 228.904 125.886 230.717L108.689 238.204C105.744 239.486 103.116 235.869 105.246 233.465L117.681 219.423C120.692 216.023 117.976 210.694 113.456 211.132L94.787 212.938C91.5901 213.248 90.2085 208.995 92.9767 207.367L109.142 197.855C113.056 195.552 112.121 189.644 107.686 188.664L89.3729 184.613C86.2367 183.919 86.2368 179.448 89.3728 178.754L107.686 174.704C112.12 173.723 113.056 167.815 109.142 165.512L92.9767 156.001C90.2085 154.372 91.5901 150.12 94.787 150.429L113.456 152.235C117.976 152.673 120.692 147.344 117.681 143.944L105.246 129.902C103.116 127.498 105.744 123.881 108.689 125.163L125.886 132.65C130.05 134.463 134.279 130.234 132.466 126.07L124.979 108.873C123.697 105.928 127.314 103.3 129.719 105.429L143.76 117.864C147.16 120.875 152.489 118.16 152.052 113.639L150.245 94.9706C149.936 91.7737 154.188 90.392 155.817 93.1603L165.329 109.326C167.632 113.24 173.539 112.304 174.52 107.87L178.571 89.5565Z" stroke="#40464F" stroke-width="2"/>
</svg>
